# Vectary OBJ Export units=mm
mtllib Claudius.mtl
o 000_Claudius_-_baked
g Claudius_-_baked
usemtl Belize_0d34edba-92d1-4d15-8aa6-8a0a18076733
v 0.750 -0.090 2.110
v -0.750 -0.090 2.110
v -0.750 -0.090 -2.110
v 0.750 -0.090 -2.110
v 0.750 0.090 -2.110
v -0.750 0.090 -2.110
v -0.750 0.090 2.110
v 0.750 0.090 2.110
vt 0.99950 0.00029
vt 0.00050 0.00029
vt 0.00050 0.99971
vt 0.99950 0.99971
vt 0.99950 0.99971
vt 0.00050 0.99971
vt 0.00050 0.00029
vt 0.99950 0.00029
vn 0.00000 -1.00000 -0.00000
vn 0.00000 -1.00000 -0.00000
vn 0.00000 -1.00000 -0.00000
vn 0.00000 -1.00000 -0.00000
vn 0.00000 1.00000 0.00000
vn 0.00000 1.00000 0.00000
vn 0.00000 1.00000 0.00000
vn 0.00000 1.00000 0.00000
vn 0.00000 -0.00000 1.00000
vn 0.00000 -0.00000 1.00000
vn 0.00000 -0.00000 1.00000
vn 0.00000 -0.00000 1.00000
vn -1.00000 0.00000 0.00000
vn -1.00000 0.00000 0.00000
vn -1.00000 0.00000 0.00000
vn -1.00000 0.00000 0.00000
vn 0.00000 0.00000 -1.00000
vn 0.00000 0.00000 -1.00000
vn 0.00000 0.00000 -1.00000
vn 0.00000 0.00000 -1.00000
vn 1.00000 0.00000 0.00000
vn 1.00000 0.00000 0.00000
vn 1.00000 0.00000 0.00000
vn 1.00000 0.00000 0.00000
f 1/1/1 2/2/2 3/3/3 4/4/4 
f 5/5/5 6/6/6 7/7/7 8/8/8 
f 8/8/9 7/7/10 2/2/11 1/1/12 
f 7/7/13 6/6/14 3/3/15 2/2/16 
f 6/6/17 5/5/18 4/4/19 3/3/20 
f 5/5/21 8/8/22 1/1/23 4/4/24 
