# Vectary OBJ Export units=mm 2,9934	1,1220
mtllib Khodynka.mtl
o 000_Khodynka_-_baked
g Khodynka_-_baked
usemtl Khodynka_63778e0a-b8b8-4c33-b522-87a224d12c3d
v 1.1220 -0.0000 2.9934
v -1.1220 -0.0000 2.9934
v -1.1220 0.0000 -2.9934
v 1.1220 0.0000 -2.9934
v 1.1220 0.1500 -2.9934
v -1.1220 0.1500 -2.9934
v -1.1220 0.1500 2.9934
v 1.1220 0.1500 2.9934
vt 0.97853 0.00475
vt 0.02147 0.00475
vt 0.02147 0.99525
vt 0.97853 0.99525
vt 0.97853 0.99525
vt 0.02147 0.99525
vt 0.02147 0.00475
vt 0.97853 0.00475
vn 0.00000 -1.00000 -0.00000
vn 0.00000 -1.00000 -0.00000
vn 0.00000 -1.00000 -0.00000
vn 0.00000 -1.00000 -0.00000
vn 0.00000 1.00000 0.00000
vn 0.00000 1.00000 0.00000
vn 0.00000 1.00000 0.00000
vn 0.00000 1.00000 0.00000
vn 0.00000 0.00000 -1.00000
vn 0.00000 0.00000 -1.00000
vn 0.00000 0.00000 -1.00000
vn 0.00000 0.00000 -1.00000
vn -1.00000 0.00000 0.00000
vn -1.00000 0.00000 0.00000
vn -1.00000 0.00000 0.00000
vn -1.00000 0.00000 0.00000
vn 0.00000 -0.00000 1.00000
vn 0.00000 -0.00000 1.00000
vn 0.00000 -0.00000 1.00000
vn 0.00000 -0.00000 1.00000
vn 1.00000 0.00000 0.00000
vn 1.00000 0.00000 0.00000
vn 1.00000 0.00000 0.00000
vn 1.00000 0.00000 0.00000
f 1/1/1 2/2/2 3/3/3 4/4/4 
f 5/5/5 6/6/6 7/7/7 8/8/8 
f 4/4/9 3/3/10 6/6/11 5/5/12 
f 3/3/13 2/2/14 7/7/15 6/6/16 
f 2/2/17 1/1/18 8/8/19 7/7/20 
f 1/1/21 4/4/22 5/5/23 8/8/24 
