# Exported from Wings 3D 1.5.3
mtllib tiles_1x1v3.mtl
o Cube1
#8 vertices, 6 faces
v -0.50000000 -5.0000000e-2 -0.50000000
v -0.50000000 -5.0000000e-2 0.50000000
v -0.50000000 5.0000000e-2 -0.50000000
v -0.50000000 5.0000000e-2 0.50000000
v 0.50000000 -5.0000000e-2 -0.50000000
v 0.50000000 -5.0000000e-2 0.50000000
v 0.50000000 5.0000000e-2 -0.50000000
v 0.50000000 5.0000000e-2 0.50000000
vt 0.0000000e+0 0.0000000e+0
vt 0.0000000e+0 1.2490009e-16
vt 0.0000000e+0 1.6653345e-16
vt 0.0000000e+0 0.10000000
vt 0.0000000e+0 0.20000000
vt 0.0000000e+0 0.30000000
vt 0.0000000e+0 0.30000000
vt 0.0000000e+0 0.40000000
vt 0.0000000e+0 1.00000000
vt 1.6653345e-16 1.00000000
vt 1.00000000 0.0000000e+0
vt 1.00000000 0.0000000e+0
vt 1.00000000 0.10000000
vt 1.00000000 0.10000000
vt 1.00000000 0.20000000
vt 1.00000000 0.30000000
vt 1.00000000 0.30000000
vt 1.00000000 0.40000000
vt 1.00000000 1.00000000
vt 1.00000000 1.00000000
vn -0.57735027 -0.57735027 -0.57735027
vn -0.57735027 -0.57735027 0.57735027
vn -0.57735027 0.57735027 -0.57735027
vn -0.57735027 0.57735027 0.57735027
vn 0.57735027 -0.57735027 -0.57735027
vn 0.57735027 -0.57735027 0.57735027
vn 0.57735027 0.57735027 -0.57735027
vn 0.57735027 0.57735027 0.57735027
g Cube1_Cube1_auv
usemtl Cube1_auv
s 1
f 1/19/1 5/10/5 6/3/6 2/11/2
f 2/14/2 4/15/4 3/5/3 1/4/1
f 2/7/2 6/17/6 8/18/8 4/8/4
f 3/13/3 7/4/7 5/2/5 1/12/1
f 4/1/4 8/12/8 7/20/7 3/9/3
f 5/15/5 7/16/7 8/6/8 6/5/6
