# Blender v2.78 (sub 0) OBJ File: 'token.blend'
# www.blender.org
o Cylinder
v 0.000000 -0.000000 -0.500000
v 0.000000 0.100000 -0.500000
v 0.097545 -0.000000 -0.490393
v 0.097545 0.100000 -0.490393
v 0.191342 -0.000000 -0.461940
v 0.191342 0.100000 -0.461940
v 0.277785 -0.000000 -0.415735
v 0.277785 0.100000 -0.415735
v 0.353553 -0.000000 -0.353553
v 0.353553 0.100000 -0.353553
v 0.415735 -0.000000 -0.277785
v 0.415735 0.100000 -0.277785
v 0.461940 -0.000000 -0.191342
v 0.461940 0.100000 -0.191342
v 0.490393 -0.000000 -0.097545
v 0.490393 0.100000 -0.097545
v 0.500000 -0.000000 -0.000000
v 0.500000 0.100000 -0.000000
v 0.490393 -0.000000 0.097545
v 0.490393 0.100000 0.097545
v 0.461940 -0.000000 0.191342
v 0.461940 0.100000 0.191342
v 0.415735 -0.000000 0.277785
v 0.415735 0.100000 0.277785
v 0.353553 -0.000000 0.353553
v 0.353553 0.100000 0.353553
v 0.277785 -0.000000 0.415735
v 0.277785 0.100000 0.415735
v 0.191342 -0.000000 0.461940
v 0.191342 0.100000 0.461940
v 0.097545 -0.000000 0.490393
v 0.097545 0.100000 0.490393
v -0.000000 -0.000000 0.500000
v -0.000000 0.100000 0.500000
v -0.097545 -0.000000 0.490393
v -0.097545 0.100000 0.490393
v -0.191342 -0.000000 0.461940
v -0.191342 0.100000 0.461940
v -0.277785 -0.000000 0.415735
v -0.277785 0.100000 0.415735
v -0.353554 -0.000000 0.353553
v -0.353554 0.100000 0.353553
v -0.415735 -0.000000 0.277785
v -0.415735 0.100000 0.277785
v -0.461940 -0.000000 0.191341
v -0.461940 0.100000 0.191341
v -0.490393 -0.000000 0.097545
v -0.490393 0.100000 0.097545
v -0.500000 -0.000000 -0.000000
v -0.500000 0.100000 -0.000000
v -0.490393 -0.000000 -0.097546
v -0.490393 0.100000 -0.097546
v -0.461940 -0.000000 -0.191342
v -0.461940 0.100000 -0.191342
v -0.415734 -0.000000 -0.277786
v -0.415734 0.100000 -0.277786
v -0.353553 -0.000000 -0.353554
v -0.353553 0.100000 -0.353554
v -0.277785 -0.000000 -0.415735
v -0.277785 0.100000 -0.415735
v -0.191341 -0.000000 -0.461940
v -0.191341 0.100000 -0.461940
v -0.097544 -0.000000 -0.490393
v -0.097544 0.100000 -0.490393
v 0.000000 -0.000000 -0.500000
v 0.097545 -0.000000 -0.490393
v 0.097545 0.100000 -0.490393
v 0.000000 0.100000 -0.500000
v 0.191342 -0.000000 -0.461940
v 0.191342 0.100000 -0.461940
v 0.277785 -0.000000 -0.415735
v 0.277785 0.100000 -0.415735
v 0.353553 -0.000000 -0.353553
v 0.353553 0.100000 -0.353553
v 0.415735 -0.000000 -0.277785
v 0.415735 0.100000 -0.277785
v 0.461940 -0.000000 -0.191342
v 0.461940 0.100000 -0.191342
v 0.490393 -0.000000 -0.097545
v 0.490393 0.100000 -0.097545
v 0.500000 -0.000000 -0.000000
v 0.500000 0.100000 -0.000000
v 0.490393 -0.000000 0.097545
v 0.490393 0.100000 0.097545
v 0.461940 -0.000000 0.191342
v 0.461940 0.100000 0.191342
v 0.415735 -0.000000 0.277785
v 0.415735 0.100000 0.277785
v 0.353553 -0.000000 0.353553
v 0.353553 0.100000 0.353553
v 0.277785 -0.000000 0.415735
v 0.277785 0.100000 0.415735
v 0.191342 -0.000000 0.461940
v 0.191342 0.100000 0.461940
v 0.097545 -0.000000 0.490393
v 0.097545 0.100000 0.490393
v -0.000000 -0.000000 0.500000
v -0.000000 0.100000 0.500000
v -0.097545 -0.000000 0.490393
v -0.097545 0.100000 0.490393
v -0.191342 -0.000000 0.461940
v -0.191342 0.100000 0.461940
v -0.277785 -0.000000 0.415735
v -0.277785 0.100000 0.415735
v -0.353554 -0.000000 0.353553
v -0.353554 0.100000 0.353553
v -0.415735 -0.000000 0.277785
v -0.415735 0.100000 0.277785
v -0.461940 -0.000000 0.191341
v -0.461940 0.100000 0.191341
v -0.490393 -0.000000 0.097545
v -0.490393 0.100000 0.097545
v -0.500000 -0.000000 -0.000000
v -0.500000 0.100000 -0.000000
v -0.490393 -0.000000 -0.097546
v -0.490393 0.100000 -0.097546
v -0.461940 -0.000000 -0.191342
v -0.461940 0.100000 -0.191342
v -0.415734 -0.000000 -0.277786
v -0.415734 0.100000 -0.277786
v -0.353553 -0.000000 -0.353554
v -0.353553 0.100000 -0.353554
v -0.277785 -0.000000 -0.415735
v -0.277785 0.100000 -0.415735
v -0.191341 -0.000000 -0.461940
v -0.191341 0.100000 -0.461940
v -0.097544 -0.000000 -0.490393
v -0.097544 0.100000 -0.490393
vt 0.6455 0.0193
vt 0.7255 0.0774
vt 0.6381 0.0420
vt 0.7364 0.0565
vt 0.8043 0.1287
vt 0.8183 0.1105
vt 0.8714 0.1938
vt 0.8880 0.1790
vt 0.9242 0.2704
vt 0.9428 0.2596
vt 0.9608 0.3554
vt 0.9806 0.3490
vt 0.9796 0.4456
vt 0.9999 0.4439
vt 0.9799 0.5375
vt 0.9999 0.5407
vt 0.9618 0.6276
vt 0.9806 0.6354
vt 0.9259 0.7125
vt 0.9428 0.7246
vt 0.8736 0.7887
vt 0.8879 0.8046
vt 0.8070 0.8533
vt 0.8182 0.8723
vt 0.7287 0.9038
vt 0.7363 0.9252
vt 0.6416 0.9385
vt 0.6457 0.9614
vt 0.5491 0.9561
vt 0.5496 0.9798
vt 0.4545 0.9561
vt 0.4518 0.9799
vt 0.3617 0.9393
vt 0.3555 0.9619
vt 0.2743 0.9054
vt 0.2645 0.9260
vt 0.1955 0.8553
vt 0.1823 0.8731
vt 0.1285 0.7909
vt 0.1123 0.8051
vt 0.0757 0.7146
vt 0.0573 0.7247
vt 0.0392 0.6296
vt 0.0194 0.6352
vt 0.0205 0.5392
vt 0.0001 0.5401
vt 0.0203 0.4471
vt 0.0002 0.4432
vt 0.0384 0.3568
vt 0.0196 0.3484
vt 0.0744 0.2720
vt 0.0575 0.2594
vt 0.1268 0.1959
vt 0.1121 0.1795
vt 0.1935 0.1303
vt 0.1813 0.1109
vt 0.2717 0.0784
vt 0.2629 0.0567
vt 0.3587 0.0425
vt 0.3538 0.0192
vt 0.4512 0.0241
vt 0.3542 0.0193
vt 0.9807 0.3542
vt 0.0193 0.6458
vt 0.4504 0.0001
vt 0.5455 0.0240
vt 0.5489 0.0002
vt 0.6458 0.9807
vt 0.0193 0.6458
vt 0.9807 0.3542
vt 0.6458 0.9807
vt 0.5492 0.9999
vt 0.4508 0.9999
vt 0.3542 0.9807
vt 0.2632 0.9430
vt 0.1813 0.8883
vt 0.1117 0.8187
vt 0.0570 0.7368
vt 0.0001 0.5492
vt 0.0001 0.4508
vt 0.0193 0.3542
vt 0.0570 0.2632
vt 0.1117 0.1813
vt 0.1813 0.1117
vt 0.2632 0.0570
vt 0.4508 0.0001
vt 0.5492 0.0001
vt 0.6458 0.0193
vt 0.7368 0.0570
vt 0.8187 0.1117
vt 0.8883 0.1813
vt 0.9430 0.2632
vt 0.9999 0.4508
vt 0.9999 0.5492
vt 0.9807 0.6458
vt 0.9430 0.7368
vt 0.8883 0.8187
vt 0.8187 0.8883
vt 0.7368 0.9430
vt 0.3542 0.0193
vt 0.4508 0.0001
vt 0.5492 0.0001
vt 0.6458 0.0193
vt 0.7368 0.0570
vt 0.8187 0.1117
vt 0.8883 0.1813
vt 0.9430 0.2632
vt 0.9999 0.4508
vt 0.9999 0.5492
vt 0.9807 0.6458
vt 0.9430 0.7368
vt 0.8883 0.8187
vt 0.8187 0.8883
vt 0.7368 0.9430
vt 0.5492 0.9999
vt 0.4508 0.9999
vt 0.3542 0.9807
vt 0.2632 0.9430
vt 0.1813 0.8883
vt 0.1117 0.8187
vt 0.0570 0.7368
vt 0.0001 0.5492
vt 0.0001 0.4508
vt 0.0193 0.3542
vt 0.0570 0.2632
vt 0.1117 0.1813
vt 0.1813 0.1117
vt 0.2632 0.0570
vn 0.0980 0.0000 -0.9952
vn 0.2903 0.0000 -0.9569
vn 0.4714 0.0000 -0.8819
vn 0.6344 0.0000 -0.7730
vn 0.7730 0.0000 -0.6344
vn 0.8819 0.0000 -0.4714
vn 0.9569 0.0000 -0.2903
vn 0.9952 0.0000 -0.0980
vn 0.9952 0.0000 0.0980
vn 0.9569 0.0000 0.2903
vn 0.8819 0.0000 0.4714
vn 0.7730 0.0000 0.6344
vn 0.6344 0.0000 0.7730
vn 0.4714 0.0000 0.8819
vn 0.2903 0.0000 0.9569
vn 0.0980 0.0000 0.9952
vn -0.0980 0.0000 0.9952
vn -0.2903 0.0000 0.9569
vn -0.4714 0.0000 0.8819
vn -0.6344 0.0000 0.7730
vn -0.7730 0.0000 0.6344
vn -0.8819 0.0000 0.4714
vn -0.9569 0.0000 0.2903
vn -0.9952 0.0000 0.0980
vn -0.9952 0.0000 -0.0980
vn -0.9569 0.0000 -0.2903
vn -0.8819 0.0000 -0.4714
vn -0.7730 0.0000 -0.6344
vn -0.6344 0.0000 -0.7730
vn -0.4714 0.0000 -0.8819
vn 0.0000 1.0000 0.0000
vn -0.2903 0.0000 -0.9569
vn -0.0980 0.0000 -0.9952
vn 0.0000 -1.0000 0.0000
s off
f 68/1/1 66/2/1 65/3/1
f 67/4/2 69/5/2 66/2/2
f 70/6/3 71/7/3 69/5/3
f 72/8/4 73/9/4 71/7/4
f 74/10/5 75/11/5 73/9/5
f 76/12/6 77/13/6 75/11/6
f 78/14/7 79/15/7 77/13/7
f 80/16/8 81/17/8 79/15/8
f 82/18/9 83/19/9 81/17/9
f 84/20/10 85/21/10 83/19/10
f 86/22/11 87/23/11 85/21/11
f 88/24/12 89/25/12 87/23/12
f 90/26/13 91/27/13 89/25/13
f 92/28/14 93/29/14 91/27/14
f 94/30/15 95/31/15 93/29/15
f 96/32/16 97/33/16 95/31/16
f 98/34/17 99/35/17 97/33/17
f 100/36/18 101/37/18 99/35/18
f 102/38/19 103/39/19 101/37/19
f 104/40/20 105/41/20 103/39/20
f 106/42/21 107/43/21 105/41/21
f 108/44/22 109/45/22 107/43/22
f 110/46/23 111/47/23 109/45/23
f 112/48/24 113/49/24 111/47/24
f 114/50/25 115/51/25 113/49/25
f 116/52/26 117/53/26 115/51/26
f 118/54/27 119/55/27 117/53/27
f 120/56/28 121/57/28 119/55/28
f 122/58/29 123/59/29 121/57/29
f 124/60/30 125/61/30 123/59/30
f 38/62/31 22/63/31 54/64/31
f 126/65/32 127/66/32 125/61/32
f 64/67/33 65/3/33 127/66/33
f 31/68/34 47/69/34 15/70/34
f 68/1/1 67/4/1 66/2/1
f 67/4/2 70/6/2 69/5/2
f 70/6/3 72/8/3 71/7/3
f 72/8/4 74/10/4 73/9/4
f 74/10/5 76/12/5 75/11/5
f 76/12/6 78/14/6 77/13/6
f 78/14/7 80/16/7 79/15/7
f 80/16/8 82/18/8 81/17/8
f 82/18/9 84/20/9 83/19/9
f 84/20/10 86/22/10 85/21/10
f 86/22/11 88/24/11 87/23/11
f 88/24/12 90/26/12 89/25/12
f 90/26/13 92/28/13 91/27/13
f 92/28/14 94/30/14 93/29/14
f 94/30/15 96/32/15 95/31/15
f 96/32/16 98/34/16 97/33/16
f 98/34/17 100/36/17 99/35/17
f 100/36/18 102/38/18 101/37/18
f 102/38/19 104/40/19 103/39/19
f 104/40/20 106/42/20 105/41/20
f 106/42/21 108/44/21 107/43/21
f 108/44/22 110/46/22 109/45/22
f 110/46/23 112/48/23 111/47/23
f 112/48/24 114/50/24 113/49/24
f 114/50/25 116/52/25 115/51/25
f 116/52/26 118/54/26 117/53/26
f 118/54/27 120/56/27 119/55/27
f 120/56/28 122/58/28 121/57/28
f 122/58/29 124/60/29 123/59/29
f 124/60/30 126/65/30 125/61/30
f 6/71/31 4/72/31 2/73/31
f 2/73/31 128/74/31 6/71/31
f 62/75/31 60/76/31 58/77/31
f 58/77/31 56/78/31 54/64/31
f 54/64/31 52/79/31 50/80/31
f 50/80/31 48/81/31 54/64/31
f 46/82/31 44/83/31 38/62/31
f 42/84/31 40/85/31 38/62/31
f 38/62/31 36/86/31 34/87/31
f 34/87/31 32/88/31 30/89/31
f 30/89/31 28/90/31 26/91/31
f 26/91/31 24/92/31 22/63/31
f 22/63/31 20/93/31 18/94/31
f 18/94/31 16/95/31 22/63/31
f 14/96/31 12/97/31 10/98/31
f 10/98/31 8/99/31 6/71/31
f 6/71/31 128/74/31 62/75/31
f 62/75/31 58/77/31 6/71/31
f 54/64/31 48/81/31 46/82/31
f 44/83/31 42/84/31 38/62/31
f 38/62/31 34/87/31 22/63/31
f 30/89/31 26/91/31 22/63/31
f 22/63/31 16/95/31 14/96/31
f 14/96/31 10/98/31 22/63/31
f 6/71/31 58/77/31 54/64/31
f 54/64/31 46/82/31 38/62/31
f 34/87/31 30/89/31 22/63/31
f 22/63/31 10/98/31 6/71/31
f 6/71/31 54/64/31 22/63/31
f 126/65/32 64/67/32 127/66/32
f 64/67/33 68/1/33 65/3/33
f 63/100/34 1/101/34 3/102/34
f 3/102/34 5/103/34 7/104/34
f 7/104/34 9/105/34 11/106/34
f 11/106/34 13/107/34 7/104/34
f 15/70/34 17/108/34 19/109/34
f 19/109/34 21/110/34 15/70/34
f 23/111/34 25/112/34 31/68/34
f 27/113/34 29/114/34 31/68/34
f 31/68/34 33/115/34 35/116/34
f 35/116/34 37/117/34 39/118/34
f 39/118/34 41/119/34 43/120/34
f 43/120/34 45/121/34 47/69/34
f 47/69/34 49/122/34 51/123/34
f 51/123/34 53/124/34 55/125/34
f 55/125/34 57/126/34 63/100/34
f 59/127/34 61/128/34 63/100/34
f 63/100/34 3/102/34 15/70/34
f 7/104/34 13/107/34 15/70/34
f 15/70/34 21/110/34 23/111/34
f 25/112/34 27/113/34 31/68/34
f 31/68/34 35/116/34 47/69/34
f 39/118/34 43/120/34 47/69/34
f 47/69/34 51/123/34 63/100/34
f 57/126/34 59/127/34 63/100/34
f 3/102/34 7/104/34 15/70/34
f 15/70/34 23/111/34 31/68/34
f 35/116/34 39/118/34 47/69/34
f 51/123/34 55/125/34 63/100/34
f 63/100/34 15/70/34 47/69/34