# Blender v2.91.0 OBJ File: ''
# www.blender.org
mtllib Cylinder.mtl
o Cylinder
v 0.000000 0.100000 0.500000
v -0.097545 0.000000 0.490393
v 0.000000 0.000000 0.500000
v -0.097545 0.100000 0.490393
v -0.191342 0.000000 0.461940
v -0.191342 0.100000 0.461940
v -0.277785 0.000000 0.415735
v -0.277785 0.100000 0.415735
v -0.353553 0.000000 0.353553
v -0.353553 0.100000 0.353553
v -0.415735 0.000000 0.277785
v -0.415735 0.100000 0.277785
v -0.461940 0.000000 0.191342
v -0.461940 0.100000 0.191342
v -0.490393 0.000000 0.097545
v -0.490393 0.100000 0.097545
v -0.500000 0.000000 0.000000
v -0.500000 0.100000 -0.000000
v -0.490393 -0.000000 -0.097545
v -0.490393 0.100000 -0.097545
v -0.461940 -0.000000 -0.191342
v -0.461940 0.100000 -0.191342
v -0.415735 -0.000000 -0.277785
v -0.415735 0.100000 -0.277785
v -0.353553 -0.000000 -0.353553
v -0.353553 0.100000 -0.353553
v -0.277785 -0.000000 -0.415735
v -0.277785 0.100000 -0.415735
v -0.191342 -0.000000 -0.461940
v -0.191342 0.100000 -0.461940
v -0.097545 -0.000000 -0.490393
v -0.097545 0.100000 -0.490393
v 0.000000 -0.000000 -0.500000
v 0.000000 0.100000 -0.500000
v 0.097545 -0.000000 -0.490393
v 0.097545 0.100000 -0.490393
v 0.191342 -0.000000 -0.461940
v 0.191342 0.100000 -0.461940
v 0.277785 -0.000000 -0.415735
v 0.277785 0.100000 -0.415735
v 0.353554 -0.000000 -0.353553
v 0.353554 0.100000 -0.353553
v 0.415735 -0.000000 -0.277785
v 0.415735 0.100000 -0.277785
v 0.461940 -0.000000 -0.191341
v 0.461940 0.100000 -0.191341
v 0.490393 -0.000000 -0.097545
v 0.490393 0.100000 -0.097545
v 0.500000 0.000000 0.000000
v 0.500000 0.100000 -0.000000
v 0.490393 0.000000 0.097546
v 0.490393 0.100000 0.097546
v 0.461940 0.000000 0.191342
v 0.461940 0.100000 0.191342
v 0.415734 0.000000 0.277786
v 0.415734 0.100000 0.277786
v 0.353553 0.000000 0.353554
v 0.353553 0.100000 0.353554
v 0.277785 0.000000 0.415735
v 0.277785 0.100000 0.415735
v 0.191341 0.000000 0.461940
v 0.191342 0.100000 -0.461940
v -0.461940 0.100000 -0.191342
v 0.461940 0.100000 0.191342
v 0.191341 0.100000 0.461940
v 0.097544 0.000000 0.490393
v 0.097544 0.100000 0.490393
v -0.097545 -0.000000 -0.490393
v 0.490393 -0.000000 -0.097545
v -0.490393 0.000000 0.097545
v -0.191342 0.100000 0.461940
v -0.097545 0.100000 0.490393
v 0.000000 0.100000 0.500000
v 0.097544 0.100000 0.490393
v 0.191341 0.100000 0.461940
v 0.277785 0.100000 0.415735
v 0.353553 0.100000 0.353554
v 0.415734 0.100000 0.277786
v 0.490393 0.100000 0.097546
v 0.500000 0.100000 -0.000000
v 0.490393 0.100000 -0.097545
v 0.461940 0.100000 -0.191341
v 0.415735 0.100000 -0.277785
v 0.353554 0.100000 -0.353553
v 0.277785 0.100000 -0.415735
v 0.097545 0.100000 -0.490393
v 0.000000 0.100000 -0.500000
v -0.097545 0.100000 -0.490393
v -0.191342 0.100000 -0.461940
v -0.277785 0.100000 -0.415735
v -0.353553 0.100000 -0.353553
v -0.415735 0.100000 -0.277785
v -0.490393 0.100000 -0.097545
v -0.500000 0.100000 -0.000000
v -0.490393 0.100000 0.097545
v -0.461940 0.100000 0.191342
v -0.415735 0.100000 0.277785
v -0.353553 0.100000 0.353553
v -0.277785 0.100000 0.415735
v 0.097544 0.000000 0.490393
v 0.000000 0.000000 0.500000
v -0.097545 0.000000 0.490393
v -0.191342 0.000000 0.461940
v -0.277785 0.000000 0.415735
v -0.353553 0.000000 0.353553
v -0.415735 0.000000 0.277785
v -0.461940 0.000000 0.191342
v -0.500000 0.000000 0.000000
v -0.490393 -0.000000 -0.097545
v -0.461940 -0.000000 -0.191342
v -0.415735 -0.000000 -0.277785
v -0.353553 -0.000000 -0.353553
v -0.277785 -0.000000 -0.415735
v -0.191342 -0.000000 -0.461940
v 0.000000 -0.000000 -0.500000
v 0.097545 -0.000000 -0.490393
v 0.191342 -0.000000 -0.461940
v 0.277785 -0.000000 -0.415735
v 0.353554 -0.000000 -0.353553
v 0.415735 -0.000000 -0.277785
v 0.461940 -0.000000 -0.191341
v 0.500000 0.000000 0.000000
v 0.490393 0.000000 0.097546
v 0.461940 0.000000 0.191342
v 0.415734 0.000000 0.277786
v 0.353553 0.000000 0.353554
v 0.277785 0.000000 0.415735
v 0.191341 0.000000 0.461940
vt 0.645500 0.030840
vt 0.725500 0.088940
vt 0.638100 0.053540
vt 0.736400 0.068040
vt 0.804300 0.140240
vt 0.818300 0.122040
vt 0.871400 0.205340
vt 0.888000 0.190540
vt 0.924200 0.281940
vt 0.942800 0.271140
vt 0.960800 0.366940
vt 0.980600 0.360540
vt 0.979600 0.457140
vt 0.999900 0.455440
vt 0.979900 0.549041
vt 0.999900 0.552240
vt 0.961800 0.639140
vt 0.980600 0.646940
vt 0.925900 0.724041
vt 0.942800 0.736140
vt 0.873600 0.800241
vt 0.887900 0.816141
vt 0.807000 0.864841
vt 0.818200 0.883841
vt 0.728700 0.915341
vt 0.736300 0.936741
vt 0.641600 0.950040
vt 0.645700 0.972940
vt 0.549100 0.967641
vt 0.549600 0.991341
vt 0.454500 0.967641
vt 0.451800 0.991441
vt 0.361700 0.950840
vt 0.355500 0.973441
vt 0.274300 0.916940
vt 0.264500 0.937541
vt 0.195500 0.866840
vt 0.182300 0.884640
vt 0.128500 0.802441
vt 0.112300 0.816640
vt 0.075700 0.726140
vt 0.057300 0.736241
vt 0.039200 0.641140
vt 0.019400 0.646741
vt 0.020500 0.550740
vt 0.000100 0.551641
vt 0.020300 0.458640
vt 0.000200 0.454740
vt 0.038400 0.368340
vt 0.019600 0.359940
vt 0.074400 0.283540
vt 0.057500 0.270940
vt 0.126800 0.207440
vt 0.112100 0.191040
vt 0.193500 0.141840
vt 0.181300 0.122440
vt 0.271700 0.089940
vt 0.262900 0.068240
vt 0.358700 0.054040
vt 0.353800 0.030740
vt 0.451200 0.035640
vt 0.354200 0.019300
vt 0.980700 0.354200
vt 0.019300 0.645800
vt 0.450400 0.011640
vt 0.545500 0.035540
vt 0.548900 0.011740
vt 0.645800 0.980700
vt 0.019300 0.645800
vt 0.980700 0.354200
vt 0.645800 0.980700
vt 0.549200 0.999900
vt 0.450800 0.999900
vt 0.354200 0.980700
vt 0.263200 0.943000
vt 0.181300 0.888300
vt 0.111700 0.818700
vt 0.057000 0.736800
vt 0.000100 0.549200
vt 0.000100 0.450800
vt 0.019300 0.354200
vt 0.057000 0.263200
vt 0.111700 0.181300
vt 0.181300 0.111700
vt 0.263200 0.057000
vt 0.450800 0.000100
vt 0.549200 0.000100
vt 0.645800 0.019300
vt 0.736800 0.057000
vt 0.818700 0.111700
vt 0.888300 0.181300
vt 0.943000 0.263200
vt 0.999900 0.450800
vt 0.999900 0.549200
vt 0.980700 0.645800
vt 0.943000 0.736800
vt 0.888300 0.818700
vt 0.818700 0.888300
vt 0.736800 0.943000
vt 0.354200 0.019300
vt 0.450800 0.000100
vt 0.549200 0.000100
vt 0.645800 0.019300
vt 0.736800 0.057000
vt 0.818700 0.111700
vt 0.888300 0.181300
vt 0.943000 0.263200
vt 0.999900 0.450800
vt 0.999900 0.549200
vt 0.980700 0.645800
vt 0.943000 0.736800
vt 0.888300 0.818700
vt 0.818700 0.888300
vt 0.736800 0.943000
vt 0.549200 0.999900
vt 0.450800 0.999900
vt 0.354200 0.980700
vt 0.263200 0.943000
vt 0.181300 0.888300
vt 0.111700 0.818700
vt 0.057000 0.736800
vt 0.000100 0.549200
vt 0.000100 0.450800
vt 0.019300 0.354200
vt 0.057000 0.263200
vt 0.111700 0.181300
vt 0.181300 0.111700
vt 0.263200 0.057000
vn -0.0980 0.0000 0.9952
vn -0.2903 0.0000 0.9569
vn -0.4714 0.0000 0.8819
vn -0.6344 0.0000 0.7730
vn -0.7730 0.0000 0.6344
vn -0.8819 0.0000 0.4714
vn -0.9569 -0.0000 0.2903
vn -0.9952 0.0000 0.0980
vn -0.9952 -0.0000 -0.0980
vn -0.9569 -0.0000 -0.2903
vn -0.8819 -0.0000 -0.4714
vn -0.7730 -0.0000 -0.6344
vn -0.6344 -0.0000 -0.7730
vn -0.4714 -0.0000 -0.8819
vn -0.2903 -0.0000 -0.9569
vn -0.0980 -0.0000 -0.9952
vn 0.0980 -0.0000 -0.9952
vn 0.2903 -0.0000 -0.9569
vn 0.4714 -0.0000 -0.8819
vn 0.6344 -0.0000 -0.7730
vn 0.7730 -0.0000 -0.6344
vn 0.8819 -0.0000 -0.4714
vn 0.9569 0.0000 -0.2903
vn 0.9952 -0.0000 -0.0980
vn 0.9952 0.0000 0.0980
vn 0.9569 0.0000 0.2903
vn 0.8819 0.0000 0.4714
vn 0.7730 0.0000 0.6344
vn 0.6344 0.0000 0.7730
vn 0.4714 0.0000 0.8819
vn 0.0000 1.0000 -0.0000
vn 0.2903 0.0000 0.9569
vn 0.0980 0.0000 0.9952
vn -0.0000 -1.0000 0.0000
usemtl Default_OBJ
s 1
f 1/1/1 2/2/1 3/3/1
f 4/4/2 5/5/2 2/2/2
f 6/6/3 7/7/3 5/5/3
f 8/8/4 9/9/4 7/7/4
f 10/10/5 11/11/5 9/9/5
f 12/12/6 13/13/6 11/11/6
f 14/14/7 15/15/7 13/13/7
f 16/16/8 17/17/8 15/15/8
f 18/18/9 19/19/9 17/17/9
f 20/20/10 21/21/10 19/19/10
f 22/22/11 23/23/11 21/21/11
f 24/24/12 25/25/12 23/23/12
f 26/26/13 27/27/13 25/25/13
f 28/28/14 29/29/14 27/27/14
f 30/30/15 31/31/15 29/29/15
f 32/32/16 33/33/16 31/31/16
f 34/34/17 35/35/17 33/33/17
f 36/36/18 37/37/18 35/35/18
f 38/38/19 39/39/19 37/37/19
f 40/40/20 41/41/20 39/39/20
f 42/42/21 43/43/21 41/41/21
f 44/44/22 45/45/22 43/43/22
f 46/46/23 47/47/23 45/45/23
f 48/48/24 49/49/24 47/47/24
f 50/50/25 51/51/25 49/49/25
f 52/52/26 53/53/26 51/51/26
f 54/54/27 55/55/27 53/53/27
f 56/56/28 57/57/28 55/55/28
f 58/58/29 59/59/29 57/57/29
f 60/60/30 61/61/30 59/59/30
f 62/62/31 63/63/31 64/64/31
f 65/65/32 66/66/32 61/61/32
f 67/67/33 3/3/33 66/66/33
f 68/68/34 69/69/34 70/70/34
f 1/1/1 4/4/1 2/2/1
f 4/4/2 6/6/2 5/5/2
f 6/6/3 8/8/3 7/7/3
f 8/8/4 10/10/4 9/9/4
f 10/10/5 12/12/5 11/11/5
f 12/12/6 14/14/6 13/13/6
f 14/14/7 16/16/7 15/15/7
f 16/16/8 18/18/8 17/17/8
f 18/18/9 20/20/9 19/19/9
f 20/20/10 22/22/10 21/21/10
f 22/22/11 24/24/11 23/23/11
f 24/24/12 26/26/12 25/25/12
f 26/26/13 28/28/13 27/27/13
f 28/28/14 30/30/14 29/29/14
f 30/30/15 32/32/15 31/31/15
f 32/32/16 34/34/16 33/33/16
f 34/34/17 36/36/17 35/35/17
f 36/36/18 38/38/18 37/37/18
f 38/38/19 40/40/19 39/39/19
f 40/40/20 42/42/20 41/41/20
f 42/42/21 44/44/21 43/43/21
f 44/44/22 46/46/22 45/45/22
f 46/46/23 48/48/23 47/47/23
f 48/48/24 50/50/24 49/49/24
f 50/50/25 52/52/25 51/51/25
f 52/52/26 54/54/26 53/53/26
f 54/54/27 56/56/27 55/55/27
f 56/56/28 58/58/28 57/57/28
f 58/58/29 60/60/29 59/59/29
f 60/60/30 65/65/30 61/61/30
f 71/71/31 72/72/31 73/73/31
f 73/73/31 74/74/31 71/71/31
f 75/75/31 76/76/31 77/77/31
f 77/77/31 78/78/31 64/64/31
f 64/64/31 79/79/31 80/80/31
f 80/80/31 81/81/31 64/64/31
f 82/82/31 83/83/31 62/62/31
f 84/84/31 85/85/31 62/62/31
f 62/62/31 86/86/31 87/87/31
f 87/87/31 88/88/31 89/89/31
f 89/89/31 90/90/31 91/91/31
f 91/91/31 92/92/31 63/63/31
f 63/63/31 93/93/31 94/94/31
f 94/94/31 95/95/31 63/63/31
f 96/96/31 97/97/31 98/98/31
f 98/98/31 99/99/31 71/71/31
f 71/71/31 74/74/31 75/75/31
f 75/75/31 77/77/31 71/71/31
f 64/64/31 81/81/31 82/82/31
f 83/83/31 84/84/31 62/62/31
f 62/62/31 87/87/31 63/63/31
f 89/89/31 91/91/31 63/63/31
f 63/63/31 95/95/31 96/96/31
f 96/96/31 98/98/31 63/63/31
f 71/71/31 77/77/31 64/64/31
f 64/64/31 82/82/31 62/62/31
f 87/87/31 89/89/31 63/63/31
f 63/63/31 98/98/31 71/71/31
f 71/71/31 64/64/31 63/63/31
f 65/65/32 67/67/32 66/66/32
f 67/67/33 1/1/33 3/3/33
f 100/100/34 101/101/34 102/102/34
f 102/102/34 103/103/34 104/104/34
f 104/104/34 105/105/34 106/106/34
f 106/106/34 107/107/34 104/104/34
f 70/70/34 108/108/34 109/109/34
f 109/109/34 110/110/34 70/70/34
f 111/111/34 112/112/34 68/68/34
f 113/113/34 114/114/34 68/68/34
f 68/68/34 115/115/34 116/116/34
f 116/116/34 117/117/34 118/118/34
f 118/118/34 119/119/34 120/120/34
f 120/120/34 121/121/34 69/69/34
f 69/69/34 122/122/34 123/123/34
f 123/123/34 124/124/34 125/125/34
f 125/125/34 126/126/34 100/100/34
f 127/127/34 128/128/34 100/100/34
f 100/100/34 102/102/34 70/70/34
f 104/104/34 107/107/34 70/70/34
f 70/70/34 110/110/34 111/111/34
f 112/112/34 113/113/34 68/68/34
f 68/68/34 116/116/34 69/69/34
f 118/118/34 120/120/34 69/69/34
f 69/69/34 123/123/34 100/100/34
f 126/126/34 127/127/34 100/100/34
f 102/102/34 104/104/34 70/70/34
f 70/70/34 111/111/34 68/68/34
f 116/116/34 118/118/34 69/69/34
f 123/123/34 125/125/34 100/100/34
f 100/100/34 70/70/34 69/69/34
