# Alias OBJ Model File
# Exported from SketchUp, (c) 2000-2012 Trimble Navigation Limited
# File units = millimeters

mtllib Commonwealth.mtl

g Mesh1 Model

usemtl Laura_Shoes
v -25.8819 10 96.5926
vt 0.257493 0.393701
vn -0.258819 0 0.965926
v -38.2683 0 92.388
vt -0.257493 0
vn -0.382683 0 0.92388
v -25.8819 0 96.5926
vt 0.257493 0
f 1/1/1 2/2/2 3/3/1

v -38.2683 10 92.388
vt -0.257493 0.393701
f 2/2/2 1/1/1 4/4/2

usemtl _
v -38.2683 10 -92.388
vt 0.308659 0.96194
vn 0 1 -0
vt 0.308658 0.0380602
vt 0.370591 0.0170371
f 5/5/3 4/6/3 1/7/3

v -50 10 -86.6025
vt 0.25 0.933013
f 6/8/3 4/6/3 5/5/3

v -50 10 86.6025
vt 0.25 0.0669873
f 6/8/3 7/9/3 4/6/3

v -60.8761 10 -79.3353
vt 0.19562 0.896677
f 8/10/3 7/9/3 6/8/3

v -60.8761 10 79.3353
vt 0.195619 0.103323
f 8/10/3 9/11/3 7/9/3

v -70.7107 10 -70.7107
vt 0.146447 0.853553
f 10/12/3 9/11/3 8/10/3

v -70.7107 10 70.7107
vt 0.146447 0.146447
f 10/12/3 11/13/3 9/11/3

v -79.3353 10 -60.8761
vt 0.103324 0.804381
f 12/14/3 11/13/3 10/12/3

v -79.3353 10 60.8761
vt 0.103323 0.195619
f 12/14/3 13/15/3 11/13/3

v -86.6025 10 -50
vt 0.0669876 0.75
f 14/16/3 13/15/3 12/14/3

v -86.6025 10 50
vt 0.0669874 0.25
f 14/16/3 15/17/3 13/15/3

v -92.388 10 -38.2683
vt 0.0380605 0.691342
f 16/18/3 15/17/3 14/16/3

v -92.388 10 38.2683
vt 0.0380603 0.308658
f 16/18/3 17/19/3 15/17/3

v -96.5926 10 -25.8819
vt 0.0170373 0.62941
f 18/20/3 17/19/3 16/18/3

v -96.5926 10 25.8819
vt 0.0170372 0.37059
f 18/20/3 19/21/3 17/19/3

v -99.1445 10 -13.0526
vt 0.00427775 0.565263
f 20/22/3 19/21/3 18/20/3

v -99.1445 10 13.0526
vt 0.00427771 0.434737
f 20/22/3 21/23/3 19/21/3

v -100 10 -1.01064e-13
vt 1.62635e-07 0.5
f 21/23/3 20/22/3 22/24/3

usemtl Laura_Shoes
vn -0.991445 0 -0.130526
v -100 0 -1.01064e-13
vn -1 0 -1.30036e-15
f 20/4/4 23/3/5 22/1/5

v -99.1445 0 -13.0526
f 23/3/5 20/4/4 24/2/4

vn -0.965926 0 -0.258819
f 18/4/6 24/3/4 20/1/4

v -96.5926 0 -25.8819
f 24/3/4 18/4/6 25/2/6

vn -0.92388 0 -0.382683
f 16/4/7 25/3/6 18/1/6

v -92.388 0 -38.2683
f 25/3/6 16/4/7 26/2/7

vn -0.866025 0 -0.5
f 14/4/8 26/3/7 16/1/7

v -86.6025 0 -50
f 26/3/7 14/4/8 27/2/8

vn -0.793353 0 -0.608761
f 12/4/9 27/3/8 14/1/8

v -79.3353 0 -60.8761
f 27/3/8 12/4/9 28/2/9

vn -0.707107 0 -0.707107
f 10/4/10 28/3/9 12/1/9

v -70.7107 0 -70.7107
f 28/3/9 10/4/10 29/2/10

v -60.8761 0 -79.3353
vn -0.608761 0 -0.793353
f 10/1/10 30/2/11 29/3/10

f 30/2/11 10/1/10 8/4/11

v -50 0 -86.6025
vn -0.5 0 -0.866025
f 8/1/11 31/2/12 30/3/11

f 31/2/12 8/1/11 6/4/12

v -38.2683 0 -92.388
vn -0.382683 0 -0.92388
f 6/1/12 32/2/13 31/3/12

f 32/2/13 6/1/12 5/4/13

v -25.8819 0 -96.5926
vn -0.258819 0 -0.965926
f 5/1/13 33/2/14 32/3/13

v -25.8819 10 -96.5926
f 33/2/14 5/1/13 34/4/14

usemtl _
vt 0.370591 0.982963
f 5/5/3 1/7/3 34/25/3

v -13.0526 10 99.1445
vt 0.434737 0.00427757
f 34/25/3 1/7/3 35/26/3

usemtl Laura_Shoes
vn -0.130526 0 0.991445
f 3/2/1 35/1/15 1/4/1

v -13.0526 0 99.1445
f 35/1/15 3/2/1 36/3/15

usemtl _
vt -0.37059 -0.985038
vn 0 -1 -0
vt -0.370589 -0.014963
vt -0.434737 -0.997852
f 3/27/16 33/28/16 36/29/16

vt -0.308657 -0.0360765
f 3/27/16 32/30/16 33/28/16

vt -0.308658 -0.963924
f 2/31/16 32/30/16 3/27/16

vt -0.249999 -0.0651279
f 2/31/16 31/32/16 32/30/16

v -50 0 86.6025
vt -0.25 -0.934873
f 37/33/16 31/32/16 2/31/16

vt -0.195618 -0.10162
f 37/33/16 30/34/16 31/32/16

v -60.8761 0 79.3353
vt -0.195619 -0.898381
f 38/35/16 30/34/16 37/33/16

vt -0.146446 -0.144929
f 38/35/16 29/36/16 30/34/16

v -70.7107 0 70.7107
vt -0.146446 -0.855072
f 39/37/16 29/36/16 38/35/16

vt -0.103322 -0.194312
f 39/37/16 28/38/16 29/36/16

v -79.3353 0 60.8761
vt -0.103323 -0.805689
f 40/39/16 28/38/16 39/37/16

vt -0.0669864 -0.248927
f 40/39/16 27/40/16 28/38/16

v -86.6025 0 50
vt -0.066987 -0.751074
f 41/41/16 27/40/16 40/39/16

vt -0.0380594 -0.307837
f 41/41/16 26/42/16 27/40/16

v -92.388 0 38.2683
vt -0.0380599 -0.692164
f 42/43/16 26/42/16 41/41/16

vt -0.0170364 -0.370035
f 42/43/16 25/44/16 26/42/16

v -96.5926 0 25.8819
vt -0.0170367 -0.629966
f 43/45/16 25/44/16 42/43/16

vt -0.00427695 -0.434457
f 43/45/16 24/46/16 25/44/16

v -99.1445 0 13.0526
vt -0.00427709 -0.565544
f 44/47/16 24/46/16 43/45/16

vt 5.45473e-07 -0.500001
f 24/46/16 44/47/16 23/48/16

usemtl Laura_Shoes
vn -0.991445 0 0.130526
f 44/3/17 22/4/5 23/2/5

f 22/4/5 44/3/17 21/1/17

vn -0.965926 0 0.258819
f 43/3/18 21/4/17 44/2/17

f 21/4/17 43/3/18 19/1/18

vn -0.92388 0 0.382683
f 42/3/19 19/4/18 43/2/18

f 19/4/18 42/3/19 17/1/19

vn -0.866025 0 0.5
f 41/3/20 17/4/19 42/2/19

f 17/4/19 41/3/20 15/1/20

vn -0.793353 0 0.608761
f 40/3/21 15/4/20 41/2/20

f 15/4/20 40/3/21 13/1/21

vn -0.707107 0 0.707107
f 39/3/22 13/4/21 40/2/21

f 13/4/21 39/3/22 11/1/22

vn -0.608761 0 0.793353
f 39/2/22 9/1/23 11/4/22

f 9/1/23 39/2/22 38/3/23

vn -0.5 0 0.866025
f 38/2/23 7/1/24 9/4/23

f 7/1/24 38/2/23 37/3/24

f 37/2/24 4/1/2 7/4/24

f 4/1/2 37/2/24 2/3/2

usemtl _
v -13.0526 0 -99.1445
vt -0.434736 -0.00214859
f 36/29/16 33/28/16 45/49/16

usemtl Laura_Shoes
vn -0.130526 0 -0.991445
f 34/1/14 45/2/25 33/3/14

v -13.0526 10 -99.1445
f 45/2/25 34/1/14 46/4/25

usemtl _
vt 0.434737 0.995722
f 34/25/3 35/26/3 46/50/3

v -2.84823e-13 10 100
vt 0.5 -5.55112e-17
f 46/50/3 35/26/3 47/51/3

usemtl Laura_Shoes
vn -3.01794e-15 0 1
f 36/2/15 47/1/26 35/4/15

v -2.84823e-13 0 100
f 47/1/26 36/2/15 48/3/26

usemtl _
vt -0.5 -1.00215
f 36/29/16 45/49/16 48/52/16

v -1.60812e-14 0 -100
vt -0.499999 0.00214742
f 48/52/16 45/49/16 49/53/16

usemtl Laura_Shoes
vn 0 0 -1
f 46/1/25 49/2/27 45/3/25

v -1.60812e-14 10 -100
f 49/2/27 46/1/25 50/4/27

usemtl _
vt 0.5 1
f 46/50/3 47/51/3 50/54/3

v 13.0526 10 99.1445
vt 0.565263 0.00427757
f 50/54/3 47/51/3 51/55/3

usemtl Laura_Shoes
vn 0.130526 0 0.991445
f 48/2/26 51/1/28 47/4/26

v 13.0526 0 99.1445
f 51/1/28 48/2/26 52/3/28

usemtl _
vt -0.565263 -0.997852
f 48/52/16 49/53/16 52/56/16

v 13.0526 0 -99.1445
vt -0.565262 -0.00214845
f 52/56/16 49/53/16 53/57/16

usemtl Laura_Shoes
vn 0.130526 0 -0.991445
f 50/1/27 53/2/29 49/3/27

v 13.0526 10 -99.1445
f 53/2/29 50/1/27 54/4/29

usemtl _
vt 0.565263 0.995722
f 50/54/3 51/55/3 54/58/3

v 25.8819 10 96.5926
vt 0.62941 0.0170371
f 54/58/3 51/55/3 55/59/3

usemtl Laura_Shoes
vn 0.258819 0 0.965926
f 52/2/28 55/1/30 51/4/28

v 25.8819 0 96.5926
f 55/1/30 52/2/28 56/3/30

usemtl _
vt -0.629409 -0.985038
f 52/56/16 53/57/16 56/60/16

v 25.8819 0 -96.5926
vt -0.629408 -0.0149627
f 56/60/16 53/57/16 57/61/16

usemtl Laura_Shoes
vn 0.258819 0 -0.965926
f 54/1/29 57/2/31 53/3/29

v 25.8819 10 -96.5926
f 57/2/31 54/1/29 58/4/31

usemtl _
vt 0.62941 0.982963
f 54/58/3 55/59/3 58/62/3

v 38.2683 10 92.388
vt 0.691342 0.0380602
f 58/62/3 55/59/3 59/63/3

usemtl Laura_Shoes
vn 0.382683 0 0.92388
f 56/2/30 59/1/32 55/4/30

v 38.2683 0 92.388
f 59/1/32 56/2/30 60/3/32

usemtl _
vt -0.691341 -0.963924
f 56/60/16 57/61/16 60/64/16

v 38.2683 0 -92.388
vt -0.69134 -0.0360761
f 60/64/16 57/61/16 61/65/16

usemtl Laura_Shoes
vn 0.382683 0 -0.92388
f 58/1/31 61/2/33 57/3/31

v 38.2683 10 -92.388
f 61/2/33 58/1/31 62/4/33

usemtl _
vt 0.691342 0.96194
f 58/62/3 59/63/3 62/66/3

v 50 10 86.6025
vt 0.75 0.0669873
f 62/66/3 59/63/3 63/67/3

usemtl Laura_Shoes
vn 0.5 0 0.866025
f 60/2/32 63/1/34 59/4/32

v 50 0 86.6025
f 63/1/34 60/2/32 64/3/34

usemtl _
vt -0.75 -0.934873
f 60/64/16 61/65/16 64/68/16

v 50 0 -86.6025
vt -0.749999 -0.0651274
f 64/68/16 61/65/16 65/69/16

usemtl Laura_Shoes
vn 0.5 0 -0.866025
f 62/1/33 65/2/35 61/3/33

v 50 10 -86.6025
f 65/2/35 62/1/33 66/4/35

usemtl _
vt 0.75 0.933012
f 62/66/3 63/67/3 66/70/3

v 60.8761 10 79.3353
vt 0.804381 0.103323
f 66/70/3 63/67/3 67/71/3

usemtl Laura_Shoes
vn 0.608761 0 0.793353
f 64/2/34 67/1/36 63/4/34

v 60.8761 0 79.3353
f 67/1/36 64/2/34 68/3/36

usemtl _
vt -0.80438 -0.898381
f 64/68/16 65/69/16 68/72/16

v 60.8761 0 -79.3353
vt -0.80438 -0.101619
f 68/72/16 65/69/16 69/73/16

usemtl Laura_Shoes
vn 0.608761 0 -0.793353
f 66/1/35 69/2/37 65/3/35

v 60.8761 10 -79.3353
f 69/2/37 66/1/35 70/4/37

usemtl _
vt 0.804381 0.896676
f 66/70/3 67/71/3 70/74/3

v 70.7107 10 70.7107
vt 0.853553 0.146447
f 70/74/3 67/71/3 71/75/3

usemtl Laura_Shoes
vn 0.707107 0 0.707107
f 68/2/36 71/1/38 67/4/36

v 70.7107 0 70.7107
f 71/1/38 68/2/36 72/3/38

usemtl _
vt -0.853553 -0.855072
f 68/72/16 69/73/16 72/76/16

v 70.7107 0 -70.7107
vt -0.853552 -0.144928
f 72/76/16 69/73/16 73/77/16

usemtl Laura_Shoes
vn 0.707107 0 -0.707107
f 70/1/37 73/2/39 69/3/37

v 70.7107 10 -70.7107
f 73/2/39 70/1/37 74/4/39

usemtl _
vt 0.853554 0.853553
f 70/74/3 71/75/3 74/78/3

v 79.3353 10 60.8761
vt 0.896677 0.195619
f 74/78/3 71/75/3 75/79/3

usemtl Laura_Shoes
v 79.3353 0 60.8761
vn 0.793353 0 0.608761
f 71/4/38 76/3/40 75/1/40

f 76/3/40 71/4/38 72/2/38

usemtl _
vt -0.896676 -0.805688
f 72/76/16 73/77/16 76/80/16

v 79.3353 0 -60.8761
vt -0.896676 -0.194312
f 76/80/16 73/77/16 77/81/16

usemtl Laura_Shoes
v 79.3353 10 -60.8761
vn 0.793353 0 -0.608761
f 73/3/39 78/4/41 77/2/41

f 78/4/41 73/3/39 74/1/39

usemtl _
vt 0.896677 0.80438
f 74/78/3 75/79/3 78/82/3

v 86.6025 10 50
vt 0.933013 0.25
f 78/82/3 75/79/3 79/83/3

usemtl Laura_Shoes
v 86.6025 0 50
vn 0.866025 0 0.5
f 75/4/40 80/3/42 79/1/42

f 80/3/42 75/4/40 76/2/40

usemtl _
vt -0.933012 -0.751074
f 76/80/16 77/81/16 80/84/16

v 86.6025 0 -50
vt -0.933012 -0.248926
f 80/84/16 77/81/16 81/85/16

usemtl Laura_Shoes
v 86.6025 10 -50
vn 0.866025 0 -0.5
f 77/3/41 82/4/43 81/2/43

f 82/4/43 77/3/41 78/1/41

usemtl _
vt 0.933013 0.75
f 78/82/3 79/83/3 82/86/3

v 92.388 10 38.2683
vt 0.96194 0.308658
f 82/86/3 79/83/3 83/87/3

usemtl Laura_Shoes
v 92.388 0 38.2683
vn 0.92388 0 0.382683
f 79/4/42 84/3/44 83/1/44

f 84/3/44 79/4/42 80/2/42

usemtl _
vt -0.961939 -0.692164
f 80/84/16 81/85/16 84/88/16

v 92.388 0 -38.2683
vt -0.961939 -0.307836
f 84/88/16 81/85/16 85/89/16

usemtl Laura_Shoes
v 92.388 10 -38.2683
vn 0.92388 0 -0.382683
f 81/3/43 86/4/45 85/2/45

f 86/4/45 81/3/43 82/1/43

usemtl _
vt 0.96194 0.691341
f 82/86/3 83/87/3 86/90/3

v 96.5926 10 25.8819
vt 0.982963 0.37059
f 86/90/3 83/87/3 87/91/3

usemtl Laura_Shoes
v 96.5926 0 25.8819
vn 0.965926 0 0.258819
f 83/4/44 88/3/46 87/1/46

f 88/3/46 83/4/44 84/2/44

usemtl _
vt -0.982962 -0.629965
f 84/88/16 85/89/16 88/92/16

v 96.5926 0 -25.8819
vt -0.982962 -0.370035
f 88/92/16 85/89/16 89/93/16

usemtl Laura_Shoes
v 96.5926 10 -25.8819
vn 0.965926 0 -0.258819
f 85/3/45 90/4/47 89/2/47

f 90/4/47 85/3/45 86/1/45

usemtl _
vt 0.982963 0.629409
f 86/90/3 87/91/3 90/94/3

v 99.1445 10 13.0526
vt 0.995723 0.434737
f 90/94/3 87/91/3 91/95/3

usemtl Laura_Shoes
v 99.1445 0 13.0526
vn 0.991445 0 0.130526
f 87/4/46 92/3/48 91/1/48

f 92/3/48 87/4/46 88/2/46

usemtl _
vt -0.995722 -0.565543
f 88/92/16 89/93/16 92/96/16

v 99.1445 0 -13.0526
vt -0.995722 -0.434457
f 92/96/16 89/93/16 93/97/16

usemtl Laura_Shoes
v 99.1445 10 -13.0526
vn 0.991445 0 -0.130526
f 89/3/47 94/4/49 93/2/49

f 94/4/49 89/3/47 90/1/47

usemtl _
vt 0.995723 0.565263
f 90/94/3 91/95/3 94/98/3

v 100 10 -0
vt 1 0.5
f 94/98/3 91/95/3 95/99/3

usemtl Laura_Shoes
v 100 0 -0
vn 1 0 1.0083e-15
f 91/4/48 96/3/50 95/1/50

f 96/3/50 91/4/48 92/2/48

usemtl _
vt -0.999999 -0.5
f 92/96/16 93/97/16 96/100/16

usemtl Laura_Shoes
f 93/3/49 95/4/50 96/2/50

f 95/4/50 93/3/49 94/1/49

g Mesh2 Model

l 2 3

l 37 2

l 38 37

l 39 38

l 40 39

l 41 40

l 42 41

l 43 42

l 44 43

l 23 44

l 24 23

l 25 24

l 26 25

l 27 26

l 28 27

l 29 28

l 30 29

l 31 30

l 32 31

l 33 32

l 45 33

l 49 45

l 53 49

l 57 53

l 61 57

l 65 61

l 69 65

l 73 69

l 77 73

l 81 77

l 85 81

l 89 85

l 93 89

l 96 93

l 92 96

l 88 92

l 84 88

l 80 84

l 76 80

l 72 76

l 68 72

l 64 68

l 60 64

l 56 60

l 52 56

l 48 52

l 36 48

l 3 36

g Mesh3 Model

l 4 1

l 7 4

l 9 7

l 11 9

l 13 11

l 15 13

l 17 15

l 19 17

l 21 19

l 22 21

l 20 22

l 18 20

l 16 18

l 14 16

l 12 14

l 10 12

l 8 10

l 6 8

l 5 6

l 34 5

l 46 34

l 50 46

l 54 50

l 58 54

l 62 58

l 66 62

l 70 66

l 74 70

l 78 74

l 82 78

l 86 82

l 90 86

l 94 90

l 95 94

l 91 95

l 87 91

l 83 87

l 79 83

l 75 79

l 71 75

l 67 71

l 63 67

l 59 63

l 55 59

l 51 55

l 47 51

l 35 47

l 1 35

