# Vectary OBJ Export units=mm
mtllib Praxilia.mtl
o 000_Praxilia
g Praxilia
usemtl Praxilia_cd817c21-44df-406f-ab0c-b34091cbc0a4
v 0.335 -0.05 1.16
v -0.335 -0.05 1.16
v -0.335 -0.05 -1.16
v 0.335 -0.05 -1.16
v 0.335 0.05 -1.16
v -0.335 0.05 -1.16
v -0.335 0.05 1.16
v 0.335 0.05 1.16
vt 1.01542 0.00089
vt -0.01542 0.00089
vt -0.01542 0.99911
vt 1.01542 0.99911
vt 1.01542 0.99911
vt -0.01542 0.99911
vt -0.01542 0.00089
vt 1.01542 0.00089
vn 0.00000 -1.00000 -0.00000
vn 0.00000 -1.00000 -0.00000
vn 0.00000 -1.00000 -0.00000
vn 0.00000 -1.00000 -0.00000
vn 0.00000 1.00000 0.00000
vn 0.00000 1.00000 0.00000
vn 0.00000 1.00000 0.00000
vn 0.00000 1.00000 0.00000
vn 0.00000 0.00000 -1.00000
vn 0.00000 0.00000 -1.00000
vn 0.00000 0.00000 -1.00000
vn 0.00000 0.00000 -1.00000
vn -1.00000 0.00000 0.00000
vn -1.00000 0.00000 0.00000
vn -1.00000 0.00000 0.00000
vn -1.00000 0.00000 0.00000
vn 0.00000 -0.00000 1.00000
vn 0.00000 -0.00000 1.00000
vn 0.00000 -0.00000 1.00000
vn 0.00000 -0.00000 1.00000
vn 1.00000 0.00000 0.00000
vn 1.00000 0.00000 0.00000
vn 1.00000 0.00000 0.00000
vn 1.00000 0.00000 0.00000
f 1/1/1 2/2/2 3/3/3 4/4/4 
f 5/5/5 6/6/6 7/7/7 8/8/8 
f 4/4/9 3/3/10 6/6/11 5/5/12 
f 3/3/13 2/2/14 7/7/15 6/6/16 
f 2/2/17 1/1/18 8/8/19 7/7/20 
f 1/1/21 4/4/22 5/5/23 8/8/24 
