# Alias OBJ Model File
# Exported from SketchUp, (c) 2000-2012 Trimble Navigation Limited
# File units = inches

mtllib Falcion.mtl

g Mesh1 Group1 Model

usemtl Falcion
v 1.12935 0.019685 -1.96875
vt 1.00002 1.00002
vn 0 1 -0
v -1.12935 0.019685 -1.96875
vt 0 1.00002
v -1.12935 0.019685 1.96875
vt 0 0.00990001
v 1.12935 0.019685 1.96875
vt 1.00002 0.00990001
f 1/1/1 2/2/1 3/3/1 4/4/1 

v 1.12935 -0.019685 -1.96875
vt -1.00002 0
vn 0 0 -1
v -1.12935 -0.019685 -1.96875
vt 0 0
vt -1.00002 0.00990001
f 5/5/2 6/6/2 2/3/2 1/7/2 

v -1.12935 -0.019685 1.96875
vt 1.70821e-05 0.00990001
vn 0 -1 -0
vt 1.70821e-05 1.00002
vt -1 1.00002
v 1.12935 -0.019685 1.96875
vt -1 0.00990001
f 7/8/3 6/9/3 5/10/3 8/11/3 

vt -1.74329 0
vn -1 0 -0
vt -1.74329 0.00990001
f 6/12/4 7/6/4 3/3/4 2/13/4 

vn 0 0 1
vt 1.00002 0
f 7/6/5 8/14/5 4/4/5 3/3/5 

vn 1 0 -0
vt 1.74329 0
vt 1.74329 0.00990001
f 8/6/6 5/15/6 1/16/6 4/3/6 

