# Alias OBJ Model File
# Exported from SketchUp, (c) 2000-2012 Trimble Navigation Limited
# File units = inches

mtllib Nausucaa.mtl

g Mesh1 Nausicaa Model

usemtl Nausicaa
v 1.1811 -0.019685 -3.3878
vt -1 0.994223
vn 0 -1 -0
v 1.1811 -0.019685 3.3878
vt -1 6.51639e-17
v -1.1811 -0.019685 3.3878
vt 0 0
v -1.1811 -0.019685 -3.3878
vt 0 0.994223
f 1/1/1 2/2/1 3/3/1 4/4/1 

vt 1.87998e-16 0
vn 1 0 -0
vt 2.86833 0
v 1.1811 0.019685 -3.3878
vt 2.86833 0.00577701
v 1.1811 0.019685 3.3878
vt 1.87998e-16 0.00577701
f 2/5/2 1/6/2 5/7/2 6/8/2 

vt -1 0
vn 0 0 -1
v -1.1811 0.019685 -3.3878
vt 0 0.00577701
vt -1 0.00577701
f 1/9/3 4/3/3 7/10/3 5/11/3 

vt -2.86833 0
vn -1 0 -0
v -1.1811 0.019685 3.3878
vt -2.86833 0.00577701
f 4/12/4 3/3/4 8/10/4 7/13/4 

vn 1.87998e-16 0 1
vt 1 0
vt 1 0.00577701
f 3/3/5 2/14/5 6/15/5 8/10/5 

vt 1 6.51639e-17
vn 0 1 -0
vt 1 0.994223
f 6/16/6 5/17/6 7/4/6 8/3/6 

