# Alias OBJ Model File
# Exported from SketchUp, (c) 2000-2012 Trimble Navigation Limited
# File units = inches

mtllib Falx.mtl

g Mesh1 Group1 Model

usemtl Falx
v 0.687795 -0.019685 2.75591
vt -1 0.0070922
vn 0 -1 -0
v -0.687795 -0.019685 2.75591
vt 9.68506e-16 0.0070922
v -0.687795 -0.019685 -2.75591
vt 9.68506e-16 1
v 0.687795 -0.019685 -2.75591
vt -1 1
f 1/1/1 2/2/1 3/3/1 4/4/1 

vt 0 -1
vn 0 0 1
vt 1 -1
v 0.687795 0.019685 2.75591
vt 1 -0.992908
v -0.687795 0.019685 2.75591
vt 0 -0.992908
f 2/5/2 1/6/2 5/7/2 6/8/2 

vt -0.00857733 0
vn 1 0 -0
vt 3.99829 0
v 0.687795 0.019685 -2.75591
vt 3.99829 0.0070922
vt -0.00857733 0.0070922
f 1/9/3 4/10/3 7/11/3 5/12/3 

vt -1 0
vn 0 0 -1
vt 9.68506e-16 0
v -0.687795 0.019685 -2.75591
f 4/13/4 3/14/4 8/2/4 7/1/4 

vt -4.01923 0
vn -1 0 -0
vt -0.0123593 0
vt -0.0123593 0.0070922
vt -4.01923 0.0070922
f 3/15/5 2/16/5 6/17/5 8/18/5 

vt 0 0.0070922
vn 0 1 -0
vt 1 0.0070922
vt 1 1
vt 0 1
f 6/19/6 5/20/6 7/21/6 8/22/6 

