# Alias OBJ Model File
# Exported from SketchUp, (c) 2000-2012 Trimble Navigation Limited
# File units = inches

mtllib Kestros.mtl

g Mesh1 Group1 Model

usemtl Kestros
v -0.374016 -0.019685 1.49606
vt 0 0.012987
vn 0 -1 -0
v -0.374016 -0.019685 -1.49606
vt 0 1
v 0.374016 -0.019685 -1.49606
vt -1 1
v 0.374016 -0.019685 1.49606
vt -1 0.012987
f 1/1/1 2/2/1 3/3/1 4/4/1 

vt -4 -1
vn -1 0 -0
vt 0 -1
v -0.374016 0.019685 1.49606
vt 0 -0.987013
v -0.374016 0.019685 -1.49606
vt -4 -0.987013
f 2/5/2 1/6/2 5/7/2 6/8/2 

vn 0 0 1
vt 1 -1
v 0.374016 0.019685 1.49606
vt 1 -0.987013
f 1/6/3 4/9/3 7/10/3 5/7/3 

vn 1 0 -0
vt 5 -1
v 0.374016 0.019685 -1.49606
vt 5 -0.987013
f 4/9/4 3/11/4 8/12/4 7/10/4 

vt -1 -1
vn 0 0 -1
vt -1 -0.987013
f 3/13/5 2/6/5 6/7/5 8/14/5 

vn 0 1 -0
vt 1 0.012987
vt 1 1
f 6/2/6 5/1/6 7/15/6 8/16/6 

