# Alias OBJ Model File
# Exported from SketchUp, (c) 2000-2012 Trimble Navigation Limited
# File units = inches

mtllib Kopis.mtl

g Mesh1 Group1 Model

usemtl Kopis
v -0.500394 -0.019685 1.74213
vt -0.0111815 0.0111732
vn 0 -1 -0
v -0.500394 -0.019685 -1.74213
vt -0.0111815 1
v 0.500394 -0.019685 -1.74213
vt -1 1
v 0.500394 -0.019685 1.74213
vt -1 0.0111732
f 1/1/1 2/2/1 3/3/1 4/4/1 

vt -3.99934 0.00423682
vn -1 0 -0
vt -0.556759 0.00423682
v -0.500394 0.019685 1.74213
vt -0.556759 0.01541
v -0.500394 0.019685 -1.74213
vt -3.99934 0.01541
f 2/5/2 1/6/2 5/7/2 6/8/2 

vt -0.00119696 -5.97447e-06
vn 0 0 1
vt 0.987621 -5.97447e-06
v 0.500394 0.019685 1.74213
vt 0.987621 0.0111672
vt -0.00119696 0.0111672
f 1/9/3 4/10/3 7/11/3 5/12/3 

vt -0.000216058 -0.997962
vn 1 0 -0
vt 3.44237 -0.997962
v 0.500394 0.019685 -1.74213
vt 3.44237 -0.986788
vt -0.000216058 -0.986788
f 4/13/4 3/14/4 8/15/4 7/16/4 

vt -1 0
vn 0 0 -1
vt -0.0111815 0
f 3/17/5 2/18/5 6/1/5 8/4/5 

vt 0 1
vn 0 1 -0
vt 0 0.0111732
vt 0.988818 0.0111732
vt 0.988818 1
f 6/19/6 5/20/6 7/21/6 8/22/6 

