# Alias OBJ Model File
# Exported from SketchUp, (c) 2000-2012 Trimble Navigation Limited
# File units = millimeters

mtllib Argos.mtl

g Mesh1 Group1 Model

usemtl _1
v 2.05 0.5 5.7
vt 1 -1
vn 0 1 -0
v 2.05 0.5 -5.7
vt 1 2.22045e-16
v -2.05 0.5 -5.7
vt 0 2.22045e-16
v -2.05 0.5 5.7
vt 0 -1
f 1/1/1 2/2/1 3/3/1 4/4/1 

v 2.05 -0.5 5.7
vt -0.0301522 -1.00032
vn 1 0 -0
v 2.05 -0.5 -5.7
vt -0.0100103 -1.24757
vt 0.0502941 -1.24693
vt 0.0301522 -0.999682
f 5/5/2 6/6/2 2/7/2 1/8/2 

vt 1.11022e-16 2.22045e-16
vn 0 -1 -0
vt 1.11022e-16 -1
v -2.05 -0.5 5.7
v -2.05 -0.5 -5.7
f 6/9/3 5/10/3 7/1/3 8/2/3 

vt 0 0
vn 0 0 1
vt 0.342064 0
vt 0.342064 0.0300056
vt 3.51114e-08 0.0300056
f 7/11/4 5/12/4 1/13/4 4/14/4 

vt -0.966695 -1
vn -1 0 -0
vt -0.966694 -0.726902
vt -1.0333 -0.726902
vt -1.0333 -1
f 8/15/5 7/16/5 4/17/5 3/18/5 

vt -1 0
vn 0 0 -1
vt -0.652417 0
vt -0.652417 0.0304897
vt -1 0.0304897
f 6/19/6 8/20/6 3/21/6 2/22/6 

