# Alias OBJ Model File
# Exported from SketchUp, (c) 2000-2012 Trimble Navigation Limited
# File units = millimeters

mtllib Phoenix.mtl

g Mesh1 Group1 Model

usemtl Phoenix
v 1.65 -0.5 -4.2
vt -1 1
vn 0 -1 -0
v 1.65 -0.5 4.2
vt -1 0
v -1.65 -0.5 4.2
vt 0 0
v -1.65 -0.5 -4.2
vt 0 1
f 1/1/1 2/2/1 3/3/1 4/4/1 

vt 2.19772 -1
vn 1 0 -0
vt 2.19772 -0.347521
v 1.65 0.5 -4.2
vt 2 -0.347521
v 1.65 0.5 4.2
vt 2 -1
f 2/5/2 1/6/2 5/7/2 6/8/2 

vt -1 -1
vn 0 0 -1
vt -0.698601 -1
v -1.65 0.5 -4.2
vt -0.698601 -0.964119
vt -1 -0.964119
f 1/9/3 4/10/3 7/11/3 5/12/3 

vt -2 -0.311906
vn -1 0 -0
vt -2 -1
v -1.65 0.5 4.2
vt -1.79149 -1
vt -1.79149 -0.311906
f 4/13/4 3/14/4 8/15/4 7/16/4 

vt 2.18624e-21 -1
vn 0 0 1
vt 0.360627 -1
vt 0.360627 -0.957068
vt 1.30271e-08 -0.957068
f 3/17/5 2/18/5 6/19/5 8/20/5 

vt 1 0
vn 0 1 -0
vt 1 1
f 6/21/6 5/22/6 7/4/6 8/3/6 

