# Alias OBJ Model File
# Exported from SketchUp, (c) 2000-2012 Trimble Navigation Limited
# File units = millimeters

mtllib siren.mtl

g Mesh1 Group1 Model

usemtl Siren
v 0.5 0.5 2.05
vt 0 0
vn 0 1 -0
v 0.5 0.5 -2.05
vt 0 1
v -0.5 0.5 -2.05
vt -1 1
v -0.5 0.5 2.05
vt -1 0
f 1/1/1 2/2/1 3/3/1 4/4/1 

v 0.5 -0.5 2.05
vt 0.844939 0
vn 1 0 -0
v 0.5 -0.5 -2.05
vt 1.15506 0
vt 1.15506 0.0184487
vt 0.844939 0.0184487
f 5/5/2 6/6/2 2/7/2 1/8/2 

vt -2.22045e-16 1
vn 0 -1 -0
vt -2.22045e-16 0
v -0.5 -0.5 2.05
vt 1 0
v -0.5 -0.5 -2.05
vt 1 1
f 6/9/3 5/10/3 7/11/3 8/12/3 

vt -1.15492 1.44387e-25
vn 0 0 1
vt -0.845082 1.05652e-25
vt -0.845082 0.0755697
vt -1.15492 0.0755697
f 7/13/4 5/14/4 1/15/4 4/16/4 

vt -1.17575 -1
vn -1 0 -0
vt -0.82425 -1
vt -0.82425 -0.97909
vt -1.17575 -0.97909
f 8/17/5 7/18/5 4/19/5 3/20/5 

vt -2.77556e-17 1.14794e-41
vn 0 0 -1
vt 0.215532 -7.49773e-26
vt 0.215532 0.0525688
vt 7.6529e-08 0.0525688
f 6/21/6 8/22/6 3/23/6 2/24/6 

