# Alias OBJ Model File
# Exported from SketchUp, (c) 2000-2012 Trimble Navigation Limited
# File units = millimeters

mtllib Spectre.mtl

g Mesh1 Group1 Model

usemtl spectre
v 2.15 -0.5 -5.8
vt -1 1
vn 0 -1 -0
v 2.15 -0.5 5.8
vt -1 0
v -2.15 -0.5 5.8
vt 0 0
v -2.15 -0.5 -5.8
vt 0 1
f 1/1/1 2/2/1 3/3/1 4/4/1 

vt 1.06768 -1
vn 1 0 -0
vt 1.06768 -0.708978
v 2.15 0.5 -5.8
vt 1 -0.708978
v 2.15 0.5 5.8
vt 1 -1
f 2/5/2 1/6/2 5/7/2 6/8/2 

vt -1.1192 -0.0193621
vn 0 0 -1
vt -0.894597 -0.0193621
v -2.15 0.5 -5.8
vt -0.894597 0
vt -1.1192 0
f 1/9/3 4/10/3 7/11/3 5/12/3 

vt -3 -0.714455
vn -1 0 -0
vt -3 -1
v -2.15 0.5 5.8
vt -2.93359 -1
vt -2.93359 -0.714455
f 4/13/4 3/14/4 8/15/4 7/16/4 

vt -0.112152 0
vn 0 0 1
vt 0.112152 0
vt 0.112152 0.0193366
vt -0.112152 0.0193366
f 3/17/5 2/18/5 6/19/5 8/20/5 

vt 1 0
vn 0 1 -0
vt 1 1
f 6/21/6 5/22/6 7/4/6 8/3/6 

