# Alias OBJ Model File
# Exported from SketchUp, (c) 2000-2012 Trimble Navigation Limited
# File units = inches

mtllib Hive.mtl

g Mesh1 Group1 Model

usemtl Hive
v -1.37795 -0.019685 1.47638
vt 0 0.0133333
vn 0 -1 -0
v -1.37795 -0.019685 -1.47638
vt 0 1.01333
v 1.37795 -0.019685 -1.47638
vt -1 1.01333
v 1.37795 -0.019685 1.47638
vt -1 0.0133333
f 1/1/1 2/2/1 3/3/1 4/4/1 

vt -2 0
vn -1 0 -0
vt -0.928571 0
v -1.37795 0.019685 1.47638
vt -0.928571 0.0133333
v -1.37795 0.019685 -1.47638
vt -2 0.0133333
f 2/5/2 1/6/2 5/7/2 6/8/2 

vt 0 -8.67362e-19
vn 0 0 1
vt 1 -8.67362e-19
v 1.37795 0.019685 1.47638
vt 1 0.0133333
f 1/9/3 4/10/3 7/11/3 5/1/3 

vn 1 0 -0
vt 1.07143 -8.67362e-19
v 1.37795 0.019685 -1.47638
vt 1.07143 0.0133333
f 4/9/4 3/12/4 8/13/4 7/1/4 

vt -1 -8.67362e-19
vn 0 0 -1
f 3/14/5 2/9/5 6/1/5 8/4/5 

vn 0 1 -0
vt 1 1.01333
f 6/2/6 5/1/6 7/11/6 8/15/6 

