# Alias OBJ Model File
# Exported from SketchUp, (c) 2000-2012 Trimble Navigation Limited
# File units = inches

mtllib Huntsman.mtl

g Mesh1 Group1 Model

usemtl Huntsman
v 0.870669 -0.019685 0.871654
vt -1 0.0220848
vn 0 -1 -0
v -0.870669 -0.019685 0.871654
vt 0 0.0220848
v -0.870669 -0.019685 -0.871654
vt 0 1
v 0.870669 -0.019685 -0.871654
vt -1 1
f 1/1/1 2/2/1 3/3/1 4/4/1 

vt 0 -3.46945e-18
vn 0 0 1
vt 1 -3.46945e-18
v 0.870669 0.019685 0.871654
vt 1 0.0220848
v -0.870669 0.019685 0.871654
f 2/5/2 1/6/2 5/7/2 6/2/2 

vn 1 0 -0
vt 1.00113 -3.46945e-18
v 0.870669 0.019685 -0.871654
vt 1.00113 0.0220848
f 1/5/3 4/8/3 7/9/3 5/2/3 

vt -1 -1
vn 0 0 -1
vt 0 -1
v -0.870669 0.019685 -0.871654
vt 0 -0.977915
vt -1 -0.977915
f 4/10/4 3/11/4 8/12/4 7/13/4 

vt -1 -3.46945e-18
vn -1 0 -0
vt 0.00113045 -3.46945e-18
vt 0.00113045 0.0220848
f 3/14/5 2/15/5 6/16/5 8/1/5 

vn 0 1 -0
vt 1 1
f 6/2/6 5/7/6 7/17/6 8/3/6 

