# Alias OBJ Model File
# Exported from SketchUp, (c) 2000-2012 Trimble Navigation Limited
# File units = inches

mtllib Widow.mtl

g Mesh1 Group1 Model

usemtl Widow
v 0.218504 -0.019685 -0.51063
vt -1 1
vn 0 -1 -0
v 0.218504 -0.019685 0.51063
vt -1 0
v -0.218504 -0.019685 0.51063
vt 0 0
v -0.218504 -0.019685 -0.51063
vt 0 1
f 1/1/1 2/2/1 3/3/1 4/4/1 

vt 1 0
vn 1 0 -0
vt 3.33694 0
v 0.218504 0.019685 -0.51063
vt 3.33694 0.0385505
v 0.218504 0.019685 0.51063
vt 1 0.0385505
f 2/5/2 1/6/2 5/7/2 6/8/2 

vt -1 -1
vn 0 0 -1
vt -1.27026e-16 -1
v -0.218504 0.019685 -0.51063
vt -1.27026e-16 -0.961449
vt -1 -0.961449
f 1/9/3 4/10/3 7/11/3 5/12/3 

vt -2 0
vn -1 0 -0
vt 0.336937 0
v -0.218504 0.019685 0.51063
vt 0.336937 0.0385505
vt -2 0.0385505
f 4/13/4 3/14/4 8/15/4 7/16/4 

vt 0.0288263 -0.0021398
vn 0 0 1
vt 1.02883 -0.0021398
vt 1.02883 0.0364107
vt 0.0288263 0.0364107
f 3/17/5 2/18/5 6/19/5 8/20/5 

vn 0 1 -0
vt 1 1
f 6/5/6 5/21/6 7/4/6 8/3/6 

